<?xml version="1.0" encoding="iso-8859-1"?>
<!-- Generator: Adobe Illustrator 19.0.0, SVG Export Plug-In . SVG Version: 6.00 Build 0)  -->
<svg xmlns="http://www.w3.org/2000/svg" xmlns:xlink="http://www.w3.org/1999/xlink" version="1.1" id="Layer_1" x="0px" y="0px" viewBox="0 0 512 512" style="enable-background:new 0 0 512 512;" xml:space="preserve" width="512px" height="512px">
<g>
	<g>
		<path d="M256,0C114.615,0,0,114.615,0,256s114.615,256,256,256s256-114.615,256-256S397.385,0,256,0z M153.6,371.285    c-18.851,0-34.133-15.282-34.133-34.133c0-18.851,15.282-34.133,34.133-34.133s34.133,15.282,34.133,34.133    C187.733,356.003,172.451,371.285,153.6,371.285z M153.6,285.952c-18.851,0-34.133-15.282-34.133-34.133    s15.282-34.133,34.133-34.133s34.133,15.282,34.133,34.133S172.451,285.952,153.6,285.952z M153.6,204.8    c-18.851,0-34.133-15.282-34.133-34.133s15.282-34.133,34.133-34.133s34.133,15.282,34.133,34.133S172.451,204.8,153.6,204.8z     M392.533,354.219c0,9.426-7.641,17.067-17.067,17.067H230.4c-9.426,0-17.067-7.641-17.067-17.067v-34.133    c0-9.426,7.641-17.067,17.067-17.067h145.067c9.426,0,17.067,7.641,17.067,17.067V354.219z M392.533,268.885    c0,9.426-7.641,17.067-17.067,17.067H230.4c-9.426,0-17.067-7.641-17.067-17.067v-34.133c0-9.426,7.641-17.067,17.067-17.067    h145.067c9.426,0,17.067,7.641,17.067,17.067V268.885z M392.533,183.552c0,9.426-7.641,17.067-17.067,17.067H230.4    c-9.426,0-17.067-7.641-17.067-17.067v-34.133c0-9.426,7.641-17.067,17.067-17.067h145.067c9.426,0,17.067,7.641,17.067,17.067    V183.552z" fill="#D80027"/>
	</g>
</g>
<g>
</g>
<g>
</g>
<g>
</g>
<g>
</g>
<g>
</g>
<g>
</g>
<g>
</g>
<g>
</g>
<g>
</g>
<g>
</g>
<g>
</g>
<g>
</g>
<g>
</g>
<g>
</g>
<g>
</g>
</svg>
