<?xml version="1.0" standalone="no"?>
<!DOCTYPE svg PUBLIC "-//W3C//DTD SVG 20010904//EN"
 "http://www.w3.org/TR/2001/REC-SVG-20010904/DTD/svg10.dtd">
<svg version="1.0" xmlns="http://www.w3.org/2000/svg"
 width="300.000000pt" height="104.000000pt" viewBox="0 0 300.000000 104.000000"
 preserveAspectRatio="xMidYMid meet">
<metadata>
Created by potrace 1.10, written by Peter Selinger 2001-2011
</metadata>
<g transform="translate(0.000000,104.000000) scale(0.050000,-0.050000)"
fill="#fb0000" stroke="none">
<path d="M3230 2011 c-293 -69 -437 -139 -676 -329 -188 -150 -249 -181 -434
-226 -107 -26 -124 -33 -60 -27 160 17 293 69 420 166 447 341 634 415 1050
414 329 -2 428 -28 789 -208 l280 -141 186 0 c250 1 324 21 423 116 79 76 84
78 142 52 33 -14 83 -26 110 -26 33 1 20 9 -40 26 -49 15 -105 33 -123 40 -23
10 -45 -4 -76 -47 -71 -100 -147 -127 -384 -137 l-213 -9 -294 145 c-419 206
-775 268 -1100 191z"/>
<path d="M3436 1854 c-73 -14 -151 -41 -171 -60 -49 -44 -49 -43 -137 16 -48
33 -89 46 -116 38 -88 -25 -202 -94 -310 -187 -257 -220 -417 -284 -842 -331
-447 -50 -455 -73 -20 -59 365 12 372 13 540 82 297 122 289 120 368 60 64
-49 84 -53 261 -53 237 0 238 6 -32 -237 -253 -230 -214 -227 -443 -34 l-156
131 -134 -1 c-74 -1 -224 -8 -334 -17 -393 -32 -930 44 -1328 187 -56 20 -155
31 -282 31 -222 0 -258 18 -217 108 46 101 178 95 665 -28 175 -44 337 -79
360 -79 88 3 -666 179 -818 191 -172 14 -207 -1 -238 -105 -25 -81 31 -107
237 -107 118 0 218 -11 273 -31 399 -142 969 -222 1348 -188 99 9 243 17 320
17 l140 1 148 -129 c81 -71 165 -135 187 -142 35 -11 38 -24 26 -121 l-14
-108 169 -78 c93 -43 219 -93 279 -111 108 -31 112 -34 164 -156 85 -196 82
-194 344 -194 225 0 625 -65 724 -118 22 -12 57 -22 77 -21 238 6 -523 159
-792 159 -251 0 -259 4 -343 209 -43 104 -49 108 -158 139 -165 46 -441 185
-441 221 0 45 9 43 340 -99 167 -72 322 -130 346 -130 52 0 181 -88 224 -152
23 -35 49 -48 99 -48 38 0 74 -9 81 -20 7 -11 32 -19 56 -19 43 2 43 2 -3 20
-31 13 -43 30 -35 51 7 17 -10 59 -38 96 -64 84 -63 104 6 118 190 38 288 232
271 535 l-13 232 128 -9 c145 -9 166 -22 169 -99 3 -60 74 -88 115 -47 37 37
54 25 54 -38 0 -82 -49 -125 -217 -189 -179 -68 -245 -176 -141 -232 67 -36
577 187 688 301 64 65 77 78 241 223 124 110 244 136 453 99 113 -20 129 -18
163 16 53 53 28 79 -88 94 -126 17 -142 40 -45 67 170 47 164 94 -20 189 -133
68 -158 58 -192 -76 -28 -112 -57 -121 -191 -60 -136 62 -401 54 -463 -15 -45
-49 -119 -47 -347 13 -104 28 -205 50 -225 50 -42 0 -42 1 -17 68 55 144 -331
235 -703 166z m473 -499 c-6 -102 -14 -248 -19 -325 -5 -77 -9 -151 -9 -165
-2 -55 -87 -19 -222 95 -79 66 -151 115 -161 109 -28 -17 -21 -162 10 -238 27
-64 26 -69 -26 -119 -71 -68 -104 -66 -282 19 -225 108 -228 124 -48 260 73
54 171 142 218 194 100 111 101 111 173 43 107 -104 256 -23 297 161 19 87 50
151 72 151 4 0 3 -83 -3 -185z"/>
<path d="M5596 1771 c154 -48 338 -277 320 -398 -11 -73 -222 -168 -299 -134
-208 88 -433 30 -538 -140 -78 -127 -405 -346 -658 -441 -107 -40 -487 -278
-444 -278 12 0 104 54 205 120 100 66 193 120 206 120 117 0 642 340 709 459
87 155 313 229 463 151 126 -65 381 35 379 149 -2 175 -227 424 -378 420 -39
-1 -31 -8 35 -28z"/>
<path d="M1386 1374 c75 -9 205 -9 290 1 142 15 132 17 -136 17 -253 -1 -273
-3 -154 -18z"/>
<path d="M3990 259 c33 -12 140 -34 237 -49 203 -33 304 -82 301 -147 0 -23 6
-43 15 -43 10 0 17 22 17 48 0 93 -103 129 -570 202 l-60 10 60 -21z"/>
</g>
</svg>
