<?xml version="1.0" encoding="iso-8859-1"?>
<!-- Generator: Adobe Illustrator 19.0.0, SVG Export Plug-In . SVG Version: 6.00 Build 0)  -->
<svg xmlns="http://www.w3.org/2000/svg" xmlns:xlink="http://www.w3.org/1999/xlink" version="1.1" id="Layer_1" x="0px" y="0px" viewBox="0 0 512.15 512.15" style="enable-background:new 0 0 512.15 512.15;" xml:space="preserve" width="512px" height="512px">
<g>
	<g>
		<path d="M496.22,185.558L325.779,12.683C317.833,4.554,306.939-0.02,295.57,0h-0.004c-11.371-0.022-22.268,4.552-30.217,12.683    L15.933,265.663c-16.563,16.933-16.563,43.996,0,60.929l170.442,172.875c16.371,16.686,43.168,16.941,59.854,0.571    c0.192-0.188,0.382-0.379,0.571-0.571L496.22,246.488C512.779,229.553,512.779,202.493,496.22,185.558z M484.07,234.504    L234.65,487.483c-10.048,9.8-26.077,9.8-36.125,0L28.083,314.608c-10.046-10.273-10.046-26.689,0-36.962L277.5,24.667    c9.758-9.977,25.757-10.154,35.734-0.396c0.133,0.13,0.265,0.262,0.396,0.396L484.07,197.542    C494.112,207.816,494.112,224.229,484.07,234.504z" fill="#D80027"/>
	</g>
</g>
<g>
	<g>
		<path d="M368.466,129.925l-4.769-4.838c0.057-0.996,0.057-1.995,0-2.991l4.769-4.838c3.304-3.36,3.258-8.763-0.102-12.067    c-3.353-3.297-8.74-3.26-12.048,0.083l-12.317-12.493l0.167-0.169c3.304-3.36,3.258-8.763-0.102-12.067    c-3.353-3.297-8.74-3.26-12.048,0.083L319.782,68.22l-0.094-0.078l0.178-0.18c3.315-3.349,3.288-8.751-0.06-12.067    c-3.349-3.315-8.751-3.289-12.067,0.06c-0.008,0.008-0.015,0.015-0.023,0.023l-4.698,4.766c-0.462-0.025-0.906-0.136-1.373-0.137    h-0.004c-0.468,0-0.914,0.111-1.378,0.136l-4.697-4.765c-3.306-3.358-8.708-3.401-12.067-0.095    c-3.358,3.306-3.401,8.708-0.095,12.067c0.004,0.004,0.008,0.008,0.011,0.012l0.176,0.178l-0.096,0.08l-12.233,12.408    c-3.304-3.36-8.706-3.406-12.067-0.103s-3.406,8.706-0.103,12.067c0.006,0.007,0.013,0.013,0.019,0.02l0.168,0.171l-12.316,12.494    l-0.002-0.002c-3.315-3.35-8.717-3.378-12.067-0.064c-3.342,3.307-3.379,8.694-0.083,12.047l4.77,4.839    c-0.057,0.995-0.057,1.993,0,2.989l-4.77,4.839c-3.309,3.353-3.273,8.754,0.08,12.064c0.001,0.001,0.002,0.002,0.003,0.003    c3.354,3.309,8.755,3.273,12.064-0.081c0.001-0.001,0.002-0.002,0.002-0.002l0.002-0.002L259.28,154.4l-0.168,0.171    c-3.314,3.351-3.284,8.753,0.067,12.067c3.351,3.314,8.753,3.284,12.067-0.067c0.006-0.006,0.011-0.011,0.017-0.017l12.233,12.408    l0.096,0.08l-0.175,0.178c-3.315,3.349-3.288,8.752,0.061,12.067c3.349,3.315,8.752,3.288,12.067-0.061    c0.007-0.007,0.015-0.015,0.022-0.022l4.698-4.766c0.465,0.025,0.912,0.137,1.381,0.137c0.467,0,0.911-0.111,1.373-0.137    l4.698,4.766c3.307,3.358,8.709,3.399,12.067,0.092c3.358-3.307,3.399-8.709,0.092-12.067c-0.003-0.003-0.006-0.006-0.009-0.009    l-0.178-0.18l0.094-0.078l12.234-12.407c3.315,3.35,8.717,3.378,12.067,0.064c3.342-3.307,3.379-8.695,0.083-12.048l-0.167-0.169    l12.317-12.493c3.315,3.35,8.717,3.378,12.067,0.064C371.725,138.666,371.762,133.278,368.466,129.925z M344.254,129.838    l-18.227,18.486l-0.003,0.002l-0.002,0.003l-18.389,18.651c-3.333,3.254-8.654,3.254-11.987,0l-36.617-37.142    c-3.398-3.472-3.4-9.022,0-12.492l0,0l36.617-37.142c3.224-3.31,8.521-3.38,11.831-0.156c0.053,0.051,0.105,0.103,0.156,0.156    l18.389,18.651l0.002,0.003l0.003,0.002l18.227,18.486C347.645,120.819,347.645,126.364,344.254,129.838z" fill="#D80027"/>
	</g>
</g>
<g>
	<g>
		<path d="M362.4,320.955c-0.003-0.003-0.006-0.006-0.009-0.009L192.287,148.408c-3.304-3.36-8.707-3.405-12.067-0.1    c-3.36,3.304-3.405,8.707-0.1,12.067c0.006,0.006,0.011,0.011,0.017,0.017l170.104,172.538c3.307,3.358,8.709,3.399,12.067,0.092    S365.707,324.313,362.4,320.955z" fill="#D80027"/>
	</g>
</g>
<g>
	<g>
		<path d="M185.405,194.112c-0.002,0-0.003,0-0.005,0c-4.689-0.071-8.578,3.614-8.758,8.3l-0.538,20.087    c-0.204,5.392-4.457,9.754-9.842,10.096l-2.142,0.058c-14.433,0.626-25.95,12.258-26.433,26.696l-0.058,2.179    c-0.203,5.392-4.456,9.753-9.841,10.092l-2.142,0.058c-14.433,0.626-25.95,12.258-26.433,26.696l-0.058,2.175    c-0.204,5.392-4.457,9.754-9.842,10.096l-19.804,0.542c-4.711,0.128-8.426,4.05-8.298,8.761c0.125,4.62,3.906,8.3,8.527,8.301l0,0    l0.237-0.004l19.804-0.542c14.431-0.63,25.946-12.26,26.433-26.696l0.058-2.179c0.203-5.392,4.457-9.753,9.842-10.092l2.142-0.058    c14.433-0.626,25.95-12.258,26.433-26.696l0.058-2.179c0.203-5.392,4.457-9.753,9.842-10.092l2.146-0.058    c14.431-0.632,25.944-12.264,26.429-26.7l0.538-20.083C193.828,198.162,190.114,194.24,185.405,194.112z" fill="#D80027"/>
	</g>
</g>
<g>
	<g>
		<path d="M221.845,231.084c-4.579-0.249-8.493,3.262-8.742,7.841c-0.008,0.154-0.012,0.308-0.012,0.463l-0.533,20.083    c-0.206,5.393-4.46,9.754-9.846,10.096l-2.142,0.058c-14.433,0.626-25.95,12.258-26.433,26.696l-0.058,2.179    c-0.203,5.392-4.457,9.753-9.842,10.092l-2.142,0.058c-14.433,0.626-25.95,12.258-26.433,26.696l-0.058,2.179    c-0.203,5.392-4.457,9.753-9.842,10.092l-19.804,0.546c-4.711,0.128-8.426,4.05-8.298,8.761c0.125,4.62,3.906,8.3,8.527,8.301    l0.237-0.004l19.804-0.546c14.433-0.626,25.951-12.258,26.434-26.696l0.058-2.179c0.203-5.392,4.457-9.753,9.842-10.092    l2.142-0.058c14.433-0.626,25.95-12.258,26.433-26.696l0.058-2.179c0.203-5.392,4.457-9.753,9.842-10.092l2.142-0.058    c14.433-0.629,25.95-12.261,26.437-26.7l0.533-20.087C230.274,235.127,226.556,231.208,221.845,231.084z" fill="#D80027"/>
	</g>
</g>
<g>
	<g>
		<path d="M258.295,268.054c-4.563-0.265-8.476,3.219-8.74,7.782c-0.01,0.174-0.015,0.348-0.014,0.522l-0.533,20.087    c-0.203,5.392-4.457,9.753-9.842,10.092l-2.146,0.058c-14.437,0.631-25.954,12.27-26.433,26.713l-0.054,2.158    c-0.206,5.393-4.46,9.755-9.846,10.096l-2.146,0.058c-14.431,0.632-25.944,12.264-26.429,26.7l-0.058,2.175    c-0.203,5.392-4.457,9.753-9.842,10.092l-19.804,0.546c-4.711,0.128-8.426,4.05-8.298,8.761c0.125,4.62,3.906,8.3,8.527,8.301    l0.237-0.004l19.804-0.546c14.433-0.626,25.95-12.258,26.433-26.696l0.058-2.175c0.204-5.392,4.457-9.754,9.842-10.096    l2.142-0.058c14.438-0.63,25.956-12.269,26.437-26.713l0.054-2.158c0.204-5.392,4.457-9.754,9.842-10.096l2.146-0.058    c14.434-0.626,25.952-12.26,26.433-26.7l0.533-20.088C266.724,272.098,263.006,268.178,258.295,268.054z" fill="#D80027"/>
	</g>
</g>
<g>
</g>
<g>
</g>
<g>
</g>
<g>
</g>
<g>
</g>
<g>
</g>
<g>
</g>
<g>
</g>
<g>
</g>
<g>
</g>
<g>
</g>
<g>
</g>
<g>
</g>
<g>
</g>
<g>
</g>
</svg>
